# xmcd CD database file
#
# Track frame offsets:
#	182
#	14521
#	27409
#	42471
#	54530
#	67347
#	82018
#	95495
#	109583
#	124646
#	138923
#	152994
#	167998
#	181287
#	195159
#	210306
#	223367
#	237174
#	250465
#	265253
#	278966
#	291668
#	304847
#
# Disc length: 4265 seconds
#
# Revision: 0
# Processed by: cddbd v1.5.1PL0 Copyright (c) Steve Scherf et al.
# Submitted via: CDex 1.51
#
DISCID=6510a717
DTITLE=Duke Ellington - Classics 1947
DYEAR=1947
DGENRE=Jazz
TTITLE0=Put Yourself In My Place
TTITLE1=Cowboy Rhumba
TTITLE2=The Wildest Gal In Town
TTITLE3=I Fell And Broke My Heart
TTITLE4=Antidisestablishmentarianismist
TTITLE5=Don't Be So Mean To Baby
TTITLE6=It's Mad, Mad, Mad!
TTITLE7=You Gotta Crawl Before You Walk
TTITLE8=Change My Ways
TTITLE9=Kitty
TTITLE10=Brown Penny
TTITLE11=Change My Ways
TTITLE12=Boogie Bop Blues
TTITLE13=Sultry Serenade
TTITLE14=Stomp, Look And Listen
TTITLE15=Air Conditioned Jungle
TTITLE16=Three Cent Stomp
TTITLE17=Progressive Gavotte
TTITLE18=He Makes Me Beleive He's Mine
TTITLE19=Take Love Easy
TTITLE20=I Can't Believe That You're In Love With Me
TTITLE21=How High The Moon
TTITLE22=Singin' In The Rain
EXTD=YEAR: 1947
EXTT0=
EXTT1=
EXTT2=
EXTT3=
EXTT4=
EXTT5=
EXTT6=
EXTT7=
EXTT8=
EXTT9=
EXTT10=
EXTT11=
EXTT12=
EXTT13=
EXTT14=
EXTT15=
EXTT16=
EXTT17=
EXTT18=
EXTT19=
EXTT20=
EXTT21=
EXTT22=
PLAYORDER=
